<svg xmlns="http://www.w3.org/2000/svg" version="1.0" width="1200.000000pt" height="1200.000000pt" viewBox="0 0 1200.000000 1200.000000" preserveAspectRatio="xMidYMid meet">

<g transform="translate(0.000000,1200.000000) scale(0.100000,-0.100000)" fill="#00A8C6" stroke="none">
<path d="M5780 11993 c-1236 -54 -2384 -462 -3365 -1195 -626 -467 -1152 -1051 -1563 -1734 -978 -1624 -1120 -3662 -379 -5419 464 -1098 1249 -2040 2252 -2697 681 -447 1458 -754 2255 -892 316 -55 333 -56 1048 -56 661 0 669 0 842 25 1639 237 3088 1121 4053 2471 563 788 939 1745 1061 2702 23 179 23 1384 1 1559 -116 895 -438 1765 -932 2518 -465 707 -1083 1321 -1783 1769 -784 502 -1655 812 -2575 915 -300 34 -639 46 -915 34z m3656 -4144 c713 -47 1344 -190 1866 -424 67 -31 156 -74 196 -97 l73 -42 -68 -66 c-37 -37 -298 -290 -580 -564 l-512 -496 -53 33 c-192 123 -543 253 -853 316 -444 90 -867 105 -1225 45 -713 -121 -1523 -553 -2314 -1235 -422 -363 -632 -504 -871 -585 -114 -38 -268 -45 -386 -15 -114 28 -282 114 -409 210 -169 127 -392 360 -520 542 l-44 62 55 -6 c345 -42 730 7 913 118 82 49 144 106 488 442 419 409 646 610 938 829 697 523 1398 823 2120 908 74 9 196 20 270 25 200 12 734 13 916 0z m-8481 -619 c581 -37 1062 -172 1389 -392 243 -164 526 -480 701 -783 76 -131 118 -224 227 -495 152 -381 222 -496 407 -672 202 -193 455 -340 704 -412 124 -36 194 -46 327 -46 272 0 368 48 1095 545 410 280 631 424 870 567 629 374 1174 592 1676 669 119 19 188 23 404 23 264 1 356 -6 590 -45 286 -47 678 -163 964 -284 153 -64 426 -199 436 -215 3 -6 -276 -340 -621 -743 -345 -402 -628 -733 -629 -735 -2 -2 -56 33 -121 76 -479 319 -1001 525 -1504 593 -145 20 -481 17 -615 -4 -221 -37 -430 -98 -652 -193 -196 -84 -344 -164 -723 -389 -711 -424 -982 -535 -1398 -576 -557 -55 -1053 154 -1485 626 -191 210 -341 420 -627 879 -241 389 -335 522 -566 801 -323 390 -921 1006 -1154 1187 l-35 28 90 0 c50 0 162 -5 250 -10z m7015 -2655 c287 -41 511 -125 691 -256 96 -71 207 -192 197 -218 -3 -10 -1767 -1460 -1784 -1467 -6 -3 -42 14 -80 37 -223 136 -475 215 -724 225 -219 10 -280 -9 -730 -227 -407 -197 -585 -263 -838 -311 -101 -20 -150 -23 -362 -23 -262 0 -333 8 -475 52 -420 132 -753 522 -960 1124 -46 134 -116 400 -130 494 l-7 49 84 -75 c129 -116 177 -154 315 -246 236 -157 508 -273 764 -325 163 -32 457 -33 603 0 154 34 296 86 481 176 170 83 217 110 690 391 698 415 1124 572 1672 614 154 12 460 5 593 -14z" fill="#00A8C6"/>
</g>
</svg>